<?xml version="1.0" encoding="UTF-8"?>
<!DOCTYPE svg PUBLIC "-//W3C//DTD SVG 1.1//EN" "http://www.w3.org/Graphics/SVG/1.1/DTD/svg11.dtd">
<!-- Creator: CorelDRAW X6 -->
<svg xmlns="http://www.w3.org/2000/svg" xml:space="preserve" width="4.97222in" height="3.84722in" version="1.1" style="shape-rendering:geometricPrecision; text-rendering:geometricPrecision; image-rendering:optimizeQuality; fill-rule:evenodd; clip-rule:evenodd"
viewBox="0 0 4972 3847"
 xmlns:xlink="http://www.w3.org/1999/xlink">
 <defs>
  <style type="text/css">
   <![CDATA[
    .fil0 {fill:#242627;fill-rule:nonzero}
   ]]>
  </style>
 </defs>
 <g id="Layer_x0020_1">
  <metadata id="CorelCorpID_0Corel-Layer"/>
  <polygon class="fil0" points="0,3847 1756,3847 1756,3711 0,3711 "/>
  <path class="fil0" d="M356 247l-39 105 117 0 -4 15 -117 0 -122 342c-4,11 -7,22 -11,33 -4,11 -5,23 -5,34 0,11 3,19 8,26 5,6 14,10 26,10 13,0 25,-4 37,-12 11,-8 22,-17 31,-27 9,-10 17,-21 24,-32 6,-11 11,-19 14,-26l13 5c-3,6 -8,15 -14,26 -6,12 -15,24 -26,35 -11,12 -24,22 -40,31 -16,9 -35,13 -57,13 -27,0 -48,-7 -61,-20 -14,-13 -20,-29 -20,-48 0,-14 3,-31 8,-49 5,-18 11,-35 17,-50l105 -292 -97 0 4 -15 97 0 39 -105 75 0z"/>
  <path class="fil0" d="M600 12l4 -15 170 0 -179 487 2 0c11,-14 23,-30 38,-46 14,-16 30,-31 47,-45 17,-14 35,-25 54,-34 19,-9 38,-13 57,-13 30,0 54,8 71,24 18,16 26,36 26,60 0,12 -2,24 -6,36 -4,12 -9,26 -14,42l-70 199c-4,12 -8,24 -12,36 -4,12 -5,23 -5,35 0,9 2,16 5,24 4,7 11,11 23,11 13,0 25,-4 35,-11 11,-7 21,-16 30,-26 9,-10 17,-21 23,-32 6,-11 11,-21 15,-28l12 5c-4,7 -9,17 -15,28 -6,12 -15,23 -25,35 -10,11 -23,21 -38,30 -15,8 -33,12 -54,12 -23,0 -42,-5 -58,-15 -16,-10 -24,-26 -24,-49 0,-9 1,-19 4,-29 3,-10 6,-21 9,-32l90 -257c6,-17 9,-32 9,-43 0,-9 -3,-18 -9,-27 -6,-9 -17,-13 -33,-13 -16,0 -34,6 -55,18 -21,12 -42,28 -62,48 -21,20 -40,44 -59,72 -18,28 -33,57 -45,90l-81 224 -74 0 290 -801 -98 0z"/>
  <path class="fil0" d="M1331 368c-9,-10 -23,-15 -43,-15 -22,0 -44,6 -64,19 -20,13 -39,29 -55,48 -16,19 -31,39 -43,61 -12,22 -21,42 -28,61 16,3 35,4 55,4 26,0 50,-4 73,-12 23,-8 43,-18 61,-31 18,-13 32,-28 42,-45 10,-17 16,-35 16,-54 0,-14 -4,-26 -13,-37zm-4 367c-9,13 -20,27 -35,40 -15,13 -33,25 -55,35 -22,10 -48,16 -79,16 -31,0 -57,-5 -78,-15 -21,-10 -38,-23 -52,-39 -13,-16 -23,-33 -29,-52 -6,-19 -9,-37 -9,-55 0,-36 9,-73 26,-111 18,-38 40,-73 69,-105 28,-32 60,-58 96,-79 36,-21 72,-31 110,-31 14,0 29,2 43,5 14,3 27,8 39,15 11,6 21,15 28,25 7,10 11,22 11,37 0,19 -5,36 -16,51 -10,15 -24,27 -40,38 -16,10 -35,19 -54,26 -20,7 -39,13 -57,17 -19,4 -36,7 -51,9 -15,2 -27,3 -34,3 -12,0 -24,0 -35,-1 -11,-1 -21,-2 -30,-3 -8,23 -14,46 -20,68 -5,23 -8,46 -8,71 0,39 10,67 30,86 20,19 45,28 76,28 23,0 43,-4 61,-13 18,-9 33,-20 46,-32 13,-12 24,-25 33,-37 9,-13 16,-22 22,-30l13 8c-4,5 -11,14 -19,27z"/>
  <path class="fil0" d="M281 2037c-89,0 -178,-32 -247,-77l46 -120c62,45 137,73 205,73 83,0 119,-48 119,-103 0,-55 -24,-89 -148,-142 -137,-58 -187,-129 -187,-223 0,-114 95,-220 259,-220 76,0 151,26 198,57l-43 118c-42,-29 -104,-56 -158,-56 -83,0 -121,45 -121,98 0,53 39,84 136,127 156,68 201,131 201,234 0,127 -98,235 -260,235z"/>
  <path class="fil0" d="M1245 1345c-150,0 -255,122 -255,287 0,163 104,287 255,287 149,0 253,-124 253,-287 0,-164 -104,-287 -253,-287zm-4 693c-228,0 -394,-173 -394,-406 0,-234 174,-407 402,-407 228,0 394,173 394,407 0,233 -174,406 -402,406z"/>
  <path class="fil0" d="M2378 2037c-249,0 -424,-172 -424,-406 0,-233 177,-407 424,-407 98,0 187,31 253,72l-46 114c-62,-35 -140,-60 -209,-60 -173,0 -278,115 -278,281 0,165 108,280 281,280 70,0 151,-25 215,-62l41 114c-66,42 -159,74 -257,74z"/>
  <polygon class="fil0" points="2995,2024 3129,2024 3129,1237 2995,1237 "/>
  <path class="fil0" d="M3824 1474l-112 263 223 0 -112 -263zm232 550l-76 -180 -311 0 -76 180 -139 0 363 -798 19 0 362 798 -142 0z"/>
  <polygon class="fil0" points="4495,2024 4495,1237 4630,1237 4630,1902 4975,1902 4975,2024 "/>
  <polygon class="fil0" points="503,3236 503,2898 141,2898 141,3236 7,3236 7,2449 141,2449 141,2777 503,2777 503,2449 637,2449 637,3236 "/>
  <path class="fil0" d="M1331 2556c-149,0 -253,122 -253,287 0,163 104,287 253,287 50,0 96,-15 133,-41l-130 -114 83 -95c0,0 121,110 128,116 25,-44 40,-96 40,-154 0,-164 -105,-287 -253,-287zm329 709c0,0 -75,-70 -100,-91 -67,47 -146,75 -233,75 -228,0 -394,-173 -394,-406 0,-234 174,-407 402,-407 229,0 394,173 394,407 0,92 -30,177 -81,244 24,20 95,83 95,83l-83 96z"/>
 </g>
</svg>
