<?xml version="1.0" encoding="UTF-8"?>
<!DOCTYPE svg PUBLIC "-//W3C//DTD SVG 1.1//EN" "http://www.w3.org/Graphics/SVG/1.1/DTD/svg11.dtd">
<!-- Creator: CorelDRAW X6 -->
<svg xmlns="http://www.w3.org/2000/svg" xml:space="preserve" width="5.48611in" height="4.01389in" version="1.1" style="shape-rendering:geometricPrecision; text-rendering:geometricPrecision; image-rendering:optimizeQuality; fill-rule:evenodd; clip-rule:evenodd"
viewBox="0 0 5486 4014"
 xmlns:xlink="http://www.w3.org/1999/xlink">
 <defs>
  <style type="text/css">
   <![CDATA[
    .fil0 {fill:#242627;fill-rule:nonzero}
   ]]>
  </style>
 </defs>
 <g id="Layer_x0020_1">
  <metadata id="CorelCorpID_0Corel-Layer"/>
  <path class="fil0" d="M334 259l-41 112 124 0 -5 16 -124 0 -130 362c-4,11 -8,23 -11,35 -4,12 -6,24 -6,36 0,11 3,21 9,27 6,7 15,10 28,10 14,0 27,-4 39,-13 12,-8 23,-18 33,-29 10,-11 18,-22 25,-34 7,-11 12,-21 15,-27l14 6c-3,6 -8,15 -15,28 -7,13 -16,25 -27,38 -11,13 -26,23 -43,32 -17,9 -37,14 -61,14 -29,0 -51,-7 -65,-21 -14,-14 -22,-31 -22,-51 0,-15 3,-32 9,-52 6,-19 12,-37 18,-53l112 -310 -103 0 5 -16 103 0 41 -112 80 0z"/>
  <path class="fil0" d="M593 9l5 -16 180 0 -190 516 2 0c11,-15 25,-31 40,-48 15,-17 32,-33 50,-47 18,-14 37,-26 58,-36 20,-9 40,-14 61,-14 32,0 57,9 76,26 19,17 28,38 28,63 0,13 -2,26 -6,38 -4,13 -9,28 -15,45l-74 211c-5,13 -9,26 -13,38 -4,13 -6,25 -6,37 0,9 2,17 6,25 4,8 12,11 24,11 14,0 26,-4 38,-11 11,-8 22,-17 31,-27 10,-11 18,-22 25,-34 7,-12 12,-22 16,-30l13 6c-4,8 -9,18 -16,30 -7,13 -16,25 -27,37 -11,12 -24,23 -40,31 -16,9 -35,13 -57,13 -24,0 -45,-5 -62,-16 -17,-11 -25,-28 -25,-52 0,-10 1,-20 4,-31 3,-11 6,-22 10,-34l96 -272c6,-18 9,-33 9,-46 0,-10 -3,-19 -10,-29 -6,-9 -18,-14 -35,-14 -17,0 -36,6 -58,19 -22,13 -44,30 -66,51 -22,22 -43,47 -62,76 -19,29 -35,61 -47,95l-85 238 -79 0 308 -850 -104 0z"/>
  <path class="fil0" d="M1364 777c-9,14 -22,28 -38,42 -16,14 -35,27 -59,38 -23,11 -51,17 -84,17 -33,0 -60,-5 -83,-16 -22,-11 -41,-24 -55,-41 -14,-17 -24,-35 -31,-55 -6,-20 -10,-40 -10,-59 0,-38 9,-77 28,-118 19,-41 43,-78 73,-112 30,-34 64,-62 102,-84 38,-22 77,-33 116,-33 15,0 30,2 46,5 15,3 29,9 41,15 12,7 22,16 30,26 8,11 11,24 11,39 0,21 -6,39 -17,54 -11,16 -25,29 -43,40 -17,11 -37,20 -58,28 -21,8 -41,13 -61,18 -20,4 -38,7 -54,9 -16,2 -28,3 -36,3 -13,0 -25,0 -38,-1 -12,-1 -23,-2 -32,-3 -8,24 -15,48 -21,72 -6,24 -9,49 -9,76 0,41 11,72 32,92 21,20 48,30 81,30 24,0 46,-5 64,-14 19,-9 35,-21 49,-34 14,-13 26,-26 35,-39 10,-13 17,-24 23,-31l14 8c-5,5 -11,15 -21,29zm5 -389c-9,-11 -24,-16 -46,-16 -24,0 -46,7 -68,21 -22,14 -41,31 -59,51 -18,20 -33,42 -46,65 -13,23 -23,45 -30,64 17,3 37,5 58,5 27,0 53,-4 78,-13 24,-8 46,-19 64,-33 19,-14 33,-30 44,-48 11,-18 17,-37 17,-57 0,-15 -5,-28 -14,-39z"/>
  <path class="fil0" d="M262 2130c-95,0 -189,-34 -262,-82l49 -128c66,48 146,78 218,78 88,0 126,-51 126,-109 0,-58 -25,-95 -157,-150 -146,-62 -198,-137 -198,-237 0,-121 100,-234 275,-234 81,0 161,27 210,60l-46 125c-44,-31 -111,-59 -168,-59 -88,0 -129,48 -129,104 0,56 41,89 145,134 165,72 213,139 213,248 0,134 -104,250 -276,250z"/>
  <path class="fil0" d="M1281 2130c-242,0 -418,-183 -418,-431 0,-248 185,-432 426,-432 242,0 418,183 418,432 0,247 -185,431 -426,431zm5 -735c-160,0 -270,130 -270,304 0,173 111,304 270,304 158,0 269,-131 269,-304 0,-174 -111,-304 -269,-304z"/>
  <path class="fil0" d="M2478 2130c-264,0 -450,-182 -450,-431 0,-247 188,-432 450,-432 104,0 198,33 269,76l-49 121c-66,-38 -148,-64 -222,-64 -183,0 -295,122 -295,299 0,176 115,297 299,297 74,0 161,-26 228,-66l43 121c-70,44 -169,79 -272,79z"/>
  <polygon class="fil0" points="3160,2116 3302,2116 3302,1281 3160,1281 "/>
  <path class="fil0" d="M4331 2116l-81 -191 -330 0 -81 191 -147 0 385 -847 20 0 384 847 -150 0zm-246 -583l-119 279 237 0 -118 -279z"/>
  <polygon class="fil0" points="4838,2116 4838,1281 4980,1281 4980,1986 5431,1986 5431,2116 "/>
  <path class="fil0" d="M288 3131c-27,0 -56,-2 -83,-3l0 272 -142 0 0 -827c74,-9 144,-14 212,-14 229,0 346,125 346,281 0,170 -120,291 -333,291zm10 -441c-32,0 -64,2 -93,7l0 305c28,2 55,5 80,5 129,0 188,-67 188,-162 0,-82 -58,-155 -174,-155z"/>
  <path class="fil0" d="M1455 3400l-81 -191 -330 0 -81 191 -147 0 385 -847 21 0 384 847 -150 0zm-246 -583l-118 279 237 0 -119 -279z"/>
  <polygon class="fil0" points="2587,3416 2064,2865 2064,3400 1921,3400 1921,2553 1944,2549 2460,3092 2460,2565 2603,2565 2603,3413 "/>
  <polygon class="fil0" points="3358,2695 3358,3400 3216,3400 3216,2695 2950,2695 2950,2565 3623,2565 3623,2695 "/>
  <path class="fil0" d="M4424 3400l-182 -301c-15,1 -29,1 -44,1 -27,0 -56,-1 -83,-2l0 302 -142 0 0 -827c66,-8 136,-14 220,-14 237,0 342,115 342,263 0,108 -59,196 -163,242l219 336 -165 0zm-214 -713c-34,0 -67,1 -96,7l0 285c26,3 55,5 82,5 124,0 187,-58 187,-154 0,-84 -64,-142 -173,-142z"/>
  <polygon class="fil0" points="5327,2565 5124,2918 4919,2565 4756,2565 5050,3048 5050,3400 5192,3400 5192,3049 5486,2565 5486,2565 "/>
  <polygon class="fil0" points="55,4014 1453,4014 1453,3871 55,3871 "/>
 </g>
</svg>
